<svg width="150" height="68" viewBox="0 0 150 68" fill="none" xmlns="http://www.w3.org/2000/svg">
<path d="M75 3C95.6053 3 114.212 6.67719 127.63 12.5811C134.34 15.5335 139.708 19.0232 143.385 22.8477C147.057 26.6674 149 30.7725 149 35C149 39.2275 147.057 43.3326 143.385 47.1523C139.708 50.9768 134.34 54.4665 127.63 57.4189C114.212 63.3228 95.6053 67 75 67C54.3947 67 35.7881 63.3228 22.3701 57.4189C15.6599 54.4665 10.2918 50.9768 6.61523 47.1523C2.94343 43.3326 1 39.2275 1 35C1 30.7725 2.94343 26.6674 6.61523 22.8477C10.2918 19.0232 15.6599 15.5335 22.3701 12.5811C35.7881 6.67719 54.3947 3 75 3Z" fill="#108A5F" stroke="black" stroke-width="2"/>
<path d="M15.504 42L21.012 18.24H29.832C32.616 18.24 34.788 18.876 36.348 20.148C37.908 21.396 38.688 23.124 38.688 25.332C38.688 27.06 38.28 28.596 37.464 29.94C36.648 31.26 35.484 32.304 33.972 33.072C32.46 33.84 30.672 34.224 28.608 34.224H20.58L21.66 29.58H28.428C29.34 29.58 30.096 29.412 30.696 29.076C31.32 28.716 31.788 28.248 32.1 27.672C32.412 27.096 32.568 26.472 32.568 25.8C32.568 24.912 32.292 24.204 31.74 23.676C31.188 23.148 30.312 22.884 29.112 22.884H26.088L21.696 42H15.504ZM36.609 42L42.117 18.24H50.937C53.721 18.24 55.893 18.876 57.453 20.148C59.013 21.396 59.793 23.124 59.793 25.332C59.793 27.06 59.385 28.596 58.569 29.94C57.753 31.26 56.589 32.304 55.077 33.072C53.565 33.84 51.777 34.224 49.713 34.224H41.685L42.765 29.58H49.533C50.445 29.58 51.201 29.412 51.801 29.076C52.425 28.716 52.893 28.248 53.205 27.672C53.517 27.096 53.673 26.472 53.673 25.8C53.673 24.912 53.397 24.204 52.845 23.676C52.293 23.148 51.417 22.884 50.217 22.884H47.193L42.801 42H36.609ZM68.946 42.396C67.314 42.396 65.766 42.18 64.302 41.748C62.862 41.292 61.542 40.632 60.342 39.768C59.166 38.88 58.17 37.788 57.354 36.492L60.954 32.928C61.53 33.96 62.25 34.824 63.114 35.52C63.978 36.216 64.914 36.744 65.922 37.104C66.954 37.44 67.962 37.608 68.946 37.608C69.642 37.608 70.218 37.5 70.674 37.284C71.13 37.068 71.466 36.78 71.682 36.42C71.922 36.06 72.042 35.676 72.042 35.268C72.042 34.764 71.85 34.356 71.466 34.044C71.106 33.732 70.566 33.456 69.846 33.216L66.354 32.064C64.77 31.536 63.438 30.744 62.358 29.688C61.278 28.608 60.738 27.216 60.738 25.512C60.738 23.904 61.146 22.536 61.962 21.408C62.778 20.256 63.906 19.38 65.346 18.78C66.786 18.18 68.418 17.88 70.242 17.88C72.69 17.88 74.742 18.324 76.398 19.212C78.078 20.076 79.47 21.3 80.574 22.884L76.794 26.34C76.314 25.476 75.726 24.78 75.03 24.252C74.334 23.7 73.566 23.304 72.726 23.064C71.91 22.8 71.082 22.668 70.242 22.668C69.546 22.668 68.97 22.764 68.514 22.956C68.058 23.148 67.722 23.412 67.506 23.748C67.29 24.06 67.182 24.432 67.182 24.864C67.182 25.368 67.398 25.812 67.83 26.196C68.286 26.556 68.886 26.868 69.63 27.132L73.122 28.284C74.898 28.86 76.23 29.652 77.118 30.66C78.03 31.644 78.486 32.928 78.486 34.512C78.486 36.168 78.054 37.584 77.19 38.76C76.35 39.936 75.21 40.836 73.77 41.46C72.33 42.084 70.722 42.396 68.946 42.396Z" fill="white"/>
<path d="M83.176 45.216C81.768 45.216 80.8 44.816 80.272 44.016C79.744 43.2 79.632 42.144 79.936 40.848L82.912 27.912H86.992L84.04 40.8C83.928 41.344 83.944 41.744 84.088 42C84.248 42.256 84.56 42.384 85.024 42.384C85.36 42.384 85.616 42.352 85.792 42.288L85.048 44.928C84.808 45.04 84.536 45.112 84.232 45.144C83.944 45.192 83.592 45.216 83.176 45.216ZM93.7396 33L90.9556 45H86.8756L89.6596 33H93.7396ZM92.2516 31.608C91.5476 31.608 90.9956 31.464 90.5956 31.176C90.2116 30.888 90.0596 30.424 90.1396 29.784C90.2196 29.032 90.4676 28.496 90.8836 28.176C91.3156 27.856 91.8996 27.696 92.6356 27.696C93.3716 27.696 93.9316 27.848 94.3156 28.152C94.6996 28.44 94.8516 28.888 94.7716 29.496C94.7076 30.28 94.4596 30.832 94.0276 31.152C93.5956 31.456 93.0036 31.608 92.2516 31.608ZM93.7656 45L96.5496 33H100.174L99.5496 36.816L99.3576 36.48C99.6936 35.28 100.27 34.36 101.086 33.72C101.918 33.08 102.894 32.76 104.014 32.76C104.846 32.76 105.542 32.952 106.102 33.336C106.678 33.704 107.07 34.232 107.278 34.92C107.502 35.608 107.502 36.44 107.278 37.416L105.526 45H101.446L103.078 37.92C103.222 37.28 103.174 36.784 102.934 36.432C102.694 36.064 102.302 35.88 101.758 35.88C101.342 35.88 100.974 35.992 100.654 36.216C100.35 36.424 100.086 36.728 99.8616 37.128C99.6536 37.512 99.4856 37.976 99.3576 38.52L97.8456 45H93.7656ZM123.707 33L116.915 39L116.435 39.216L112.187 43.008L112.547 39.144L118.979 33H123.707ZM116.267 27.912L112.307 45H108.227L112.187 27.912H116.267ZM117.923 36.6L121.403 45H117.395L115.067 38.928L117.923 36.6ZM128.452 45.264C127.62 45.264 126.804 45.144 126.004 44.904C125.22 44.664 124.508 44.32 123.868 43.872C123.228 43.408 122.708 42.864 122.308 42.24L124.42 40.296C124.836 40.936 125.364 41.464 126.004 41.88C126.66 42.296 127.348 42.504 128.068 42.504C128.548 42.504 128.916 42.432 129.172 42.288C129.428 42.128 129.556 41.904 129.556 41.616C129.556 41.424 129.484 41.248 129.34 41.088C129.196 40.912 128.948 40.768 128.596 40.656L127.228 40.224C126.076 39.856 125.236 39.392 124.708 38.832C124.196 38.272 123.94 37.568 123.94 36.72C123.94 35.904 124.156 35.2 124.588 34.608C125.02 34.016 125.62 33.56 126.388 33.24C127.156 32.92 128.044 32.76 129.052 32.76C129.868 32.76 130.62 32.856 131.308 33.048C132.012 33.24 132.636 33.52 133.18 33.888C133.74 34.256 134.204 34.704 134.572 35.232L132.556 37.248C132.22 36.736 131.748 36.32 131.14 36C130.532 35.664 129.892 35.496 129.22 35.496C128.756 35.496 128.404 35.576 128.164 35.736C127.924 35.88 127.804 36.088 127.804 36.36C127.804 36.632 127.916 36.832 128.14 36.96C128.38 37.088 128.612 37.192 128.836 37.272L131.044 37.968C131.892 38.224 132.532 38.624 132.964 39.168C133.396 39.696 133.612 40.336 133.612 41.088C133.612 42.384 133.148 43.408 132.22 44.16C131.292 44.896 130.036 45.264 128.452 45.264Z" fill="white"/>
</svg>
