<svg width="150" height="80" viewBox="0 0 150 80" fill="none" xmlns="http://www.w3.org/2000/svg">
<path d="M75 2.5C95.6581 2.5 114.337 6.18517 127.832 12.123C134.58 15.0923 140.01 18.6147 143.746 22.501C147.48 26.3849 149.5 30.6081 149.5 35C149.5 39.3919 147.48 43.6151 143.746 47.499C140.01 51.3853 134.58 54.9077 127.832 57.877C114.337 63.8148 95.6581 67.5 75 67.5C54.3419 67.5 35.6631 63.8148 22.168 57.877C15.4198 54.9077 9.98973 51.3853 6.25391 47.499C2.5204 43.6151 0.5 39.3919 0.5 35C0.5 30.6081 2.5204 26.3849 6.25391 22.501C9.98973 18.6147 15.4198 15.0923 22.168 12.123C35.6631 6.18517 54.3419 2.5 75 2.5Z" fill="#108A5F" stroke="black"/>
<path d="M15.504 42L21.012 18.24H29.832C32.616 18.24 34.788 18.876 36.348 20.148C37.908 21.396 38.688 23.124 38.688 25.332C38.688 27.06 38.28 28.596 37.464 29.94C36.648 31.26 35.484 32.304 33.972 33.072C32.46 33.84 30.672 34.224 28.608 34.224H20.58L21.66 29.58H28.428C29.34 29.58 30.096 29.412 30.696 29.076C31.32 28.716 31.788 28.248 32.1 27.672C32.412 27.096 32.568 26.472 32.568 25.8C32.568 24.912 32.292 24.204 31.74 23.676C31.188 23.148 30.312 22.884 29.112 22.884H26.088L21.696 42H15.504ZM36.609 42L42.117 18.24H50.937C53.721 18.24 55.893 18.876 57.453 20.148C59.013 21.396 59.793 23.124 59.793 25.332C59.793 27.06 59.385 28.596 58.569 29.94C57.753 31.26 56.589 32.304 55.077 33.072C53.565 33.84 51.777 34.224 49.713 34.224H41.685L42.765 29.58H49.533C50.445 29.58 51.201 29.412 51.801 29.076C52.425 28.716 52.893 28.248 53.205 27.672C53.517 27.096 53.673 26.472 53.673 25.8C53.673 24.912 53.397 24.204 52.845 23.676C52.293 23.148 51.417 22.884 50.217 22.884H47.193L42.801 42H36.609ZM68.946 42.396C67.314 42.396 65.766 42.18 64.302 41.748C62.862 41.292 61.542 40.632 60.342 39.768C59.166 38.88 58.17 37.788 57.354 36.492L60.954 32.928C61.53 33.96 62.25 34.824 63.114 35.52C63.978 36.216 64.914 36.744 65.922 37.104C66.954 37.44 67.962 37.608 68.946 37.608C69.642 37.608 70.218 37.5 70.674 37.284C71.13 37.068 71.466 36.78 71.682 36.42C71.922 36.06 72.042 35.676 72.042 35.268C72.042 34.764 71.85 34.356 71.466 34.044C71.106 33.732 70.566 33.456 69.846 33.216L66.354 32.064C64.77 31.536 63.438 30.744 62.358 29.688C61.278 28.608 60.738 27.216 60.738 25.512C60.738 23.904 61.146 22.536 61.962 21.408C62.778 20.256 63.906 19.38 65.346 18.78C66.786 18.18 68.418 17.88 70.242 17.88C72.69 17.88 74.742 18.324 76.398 19.212C78.078 20.076 79.47 21.3 80.574 22.884L76.794 26.34C76.314 25.476 75.726 24.78 75.03 24.252C74.334 23.7 73.566 23.304 72.726 23.064C71.91 22.8 71.082 22.668 70.242 22.668C69.546 22.668 68.97 22.764 68.514 22.956C68.058 23.148 67.722 23.412 67.506 23.748C67.29 24.06 67.182 24.432 67.182 24.864C67.182 25.368 67.398 25.812 67.83 26.196C68.286 26.556 68.886 26.868 69.63 27.132L73.122 28.284C74.898 28.86 76.23 29.652 77.118 30.66C78.03 31.644 78.486 32.928 78.486 34.512C78.486 36.168 78.054 37.584 77.19 38.76C76.35 39.936 75.21 40.836 73.77 41.46C72.33 42.084 70.722 42.396 68.946 42.396Z" fill="white"/>
<path d="M83.176 45.216C81.768 45.216 80.8 44.816 80.272 44.016C79.744 43.2 79.632 42.144 79.936 40.848L82.912 27.912H86.992L84.04 40.8C83.928 41.344 83.944 41.744 84.088 42C84.248 42.256 84.56 42.384 85.024 42.384C85.36 42.384 85.616 42.352 85.792 42.288L85.048 44.928C84.808 45.04 84.536 45.112 84.232 45.144C83.944 45.192 83.592 45.216 83.176 45.216ZM93.7396 33L90.9556 45H86.8756L89.6596 33H93.7396ZM92.2516 31.608C91.5476 31.608 90.9956 31.464 90.5956 31.176C90.2116 30.888 90.0596 30.424 90.1396 29.784C90.2196 29.032 90.4676 28.496 90.8836 28.176C91.3156 27.856 91.8996 27.696 92.6356 27.696C93.3716 27.696 93.9316 27.848 94.3156 28.152C94.6996 28.44 94.8516 28.888 94.7716 29.496C94.7076 30.28 94.4596 30.832 94.0276 31.152C93.5956 31.456 93.0036 31.608 92.2516 31.608ZM93.7656 45L96.5496 33H100.174L99.5496 36.816L99.3576 36.48C99.6936 35.28 100.27 34.36 101.086 33.72C101.918 33.08 102.894 32.76 104.014 32.76C104.846 32.76 105.542 32.952 106.102 33.336C106.678 33.704 107.07 34.232 107.278 34.92C107.502 35.608 107.502 36.44 107.278 37.416L105.526 45H101.446L103.078 37.92C103.222 37.28 103.174 36.784 102.934 36.432C102.694 36.064 102.302 35.88 101.758 35.88C101.342 35.88 100.974 35.992 100.654 36.216C100.35 36.424 100.086 36.728 99.8616 37.128C99.6536 37.512 99.4856 37.976 99.3576 38.52L97.8456 45H93.7656ZM123.707 33L116.915 39L116.435 39.216L112.187 43.008L112.547 39.144L118.979 33H123.707ZM116.267 27.912L112.307 45H108.227L112.187 27.912H116.267ZM117.923 36.6L121.403 45H117.395L115.067 38.928L117.923 36.6ZM128.452 45.264C127.62 45.264 126.804 45.144 126.004 44.904C125.22 44.664 124.508 44.32 123.868 43.872C123.228 43.408 122.708 42.864 122.308 42.24L124.42 40.296C124.836 40.936 125.364 41.464 126.004 41.88C126.66 42.296 127.348 42.504 128.068 42.504C128.548 42.504 128.916 42.432 129.172 42.288C129.428 42.128 129.556 41.904 129.556 41.616C129.556 41.424 129.484 41.248 129.34 41.088C129.196 40.912 128.948 40.768 128.596 40.656L127.228 40.224C126.076 39.856 125.236 39.392 124.708 38.832C124.196 38.272 123.94 37.568 123.94 36.72C123.94 35.904 124.156 35.2 124.588 34.608C125.02 34.016 125.62 33.56 126.388 33.24C127.156 32.92 128.044 32.76 129.052 32.76C129.868 32.76 130.62 32.856 131.308 33.048C132.012 33.24 132.636 33.52 133.18 33.888C133.74 34.256 134.204 34.704 134.572 35.232L132.556 37.248C132.22 36.736 131.748 36.32 131.14 36C130.532 35.664 129.892 35.496 129.22 35.496C128.756 35.496 128.404 35.576 128.164 35.736C127.924 35.88 127.804 36.088 127.804 36.36C127.804 36.632 127.916 36.832 128.14 36.96C128.38 37.088 128.612 37.192 128.836 37.272L131.044 37.968C131.892 38.224 132.532 38.624 132.964 39.168C133.396 39.696 133.612 40.336 133.612 41.088C133.612 42.384 133.148 43.408 132.22 44.16C131.292 44.896 130.036 45.264 128.452 45.264Z" fill="white"/>
<path d="M81.984 48.36L80.484 51H79.676L79.404 48.36H80.06L80.164 49.94L80.188 50.46L80.424 49.944L81.28 48.36H81.984ZM82.5532 51.036C82.3612 51.036 82.1919 50.9987 82.0452 50.924C81.9012 50.8493 81.7879 50.7453 81.7052 50.612C81.6252 50.476 81.5852 50.3173 81.5852 50.136C81.5852 49.9093 81.6306 49.708 81.7212 49.532C81.8119 49.356 81.9412 49.2173 82.1092 49.116C82.2772 49.0147 82.4759 48.964 82.7052 48.964C82.8946 48.964 83.0559 49 83.1892 49.072C83.3226 49.144 83.4239 49.2467 83.4932 49.38C83.5652 49.5107 83.6012 49.6667 83.6012 49.848C83.6012 49.912 83.5972 49.972 83.5892 50.028C83.5839 50.084 83.5746 50.1347 83.5612 50.18H82.0252L82.0292 49.812H83.1172L82.9332 49.916C82.9412 49.884 82.9466 49.8547 82.9492 49.828C82.9546 49.7987 82.9572 49.7693 82.9572 49.74C82.9572 49.6733 82.9452 49.6173 82.9212 49.572C82.8999 49.5267 82.8679 49.4933 82.8252 49.472C82.7852 49.448 82.7386 49.436 82.6852 49.436C82.5946 49.436 82.5186 49.4587 82.4572 49.504C82.3959 49.5493 82.3479 49.6093 82.3132 49.684C82.2786 49.756 82.2532 49.836 82.2372 49.924C82.2239 50.0093 82.2172 50.092 82.2172 50.172C82.2172 50.2547 82.2319 50.3253 82.2612 50.384C82.2932 50.4427 82.3359 50.488 82.3892 50.52C82.4452 50.5493 82.5092 50.564 82.5812 50.564C82.6746 50.564 82.7492 50.5427 82.8052 50.5C82.8612 50.4547 82.9039 50.3987 82.9332 50.332L83.4932 50.552C83.4239 50.704 83.3052 50.8227 83.1372 50.908C82.9692 50.9933 82.7746 51.036 82.5532 51.036ZM83.7383 51L84.2023 49H84.8063L84.7023 49.636L84.6703 49.58C84.7263 49.38 84.8223 49.2267 84.9583 49.12C85.0969 49.0133 85.2596 48.96 85.4463 48.96C85.5849 48.96 85.7009 48.992 85.7943 49.056C85.8903 49.1173 85.9556 49.2053 85.9903 49.32C86.0276 49.4347 86.0276 49.5733 85.9903 49.736L85.6983 51H85.0183L85.2903 49.82C85.3143 49.7133 85.3063 49.6307 85.2663 49.572C85.2263 49.5107 85.1609 49.48 85.0703 49.48C85.0009 49.48 84.9396 49.4987 84.8863 49.536C84.8356 49.5707 84.7916 49.6213 84.7543 49.688C84.7196 49.752 84.6916 49.8293 84.6703 49.92L84.4183 51H83.7383ZM87.1131 51.036C86.8704 51.036 86.6864 50.972 86.5611 50.844C86.4358 50.7133 86.4024 50.5213 86.4611 50.268L86.8491 48.568L87.5771 48.376L87.1451 50.252C87.1184 50.356 87.1291 50.4347 87.1771 50.488C87.2251 50.5387 87.2984 50.564 87.3971 50.564C87.4558 50.564 87.5024 50.5587 87.5371 50.548C87.5744 50.5373 87.6078 50.524 87.6371 50.508L87.5891 50.944C87.5198 50.9787 87.4438 51.0027 87.3611 51.016C87.2811 51.0293 87.1984 51.036 87.1131 51.036ZM86.2811 49.484L86.3971 49H87.9531L87.8371 49.484H86.2811ZM89.0103 51.036C88.8183 51.036 88.6489 50.9987 88.5023 50.924C88.3583 50.8493 88.2449 50.7453 88.1623 50.612C88.0823 50.476 88.0423 50.3173 88.0423 50.136C88.0423 49.9093 88.0876 49.708 88.1783 49.532C88.2689 49.356 88.3983 49.2173 88.5663 49.116C88.7343 49.0147 88.9329 48.964 89.1623 48.964C89.3516 48.964 89.5129 49 89.6463 49.072C89.7796 49.144 89.8809 49.2467 89.9503 49.38C90.0223 49.5107 90.0583 49.6667 90.0583 49.848C90.0583 49.912 90.0543 49.972 90.0463 50.028C90.0409 50.084 90.0316 50.1347 90.0182 50.18H88.4823L88.4863 49.812H89.5743L89.3903 49.916C89.3983 49.884 89.4036 49.8547 89.4063 49.828C89.4116 49.7987 89.4143 49.7693 89.4143 49.74C89.4143 49.6733 89.4023 49.6173 89.3783 49.572C89.3569 49.5267 89.3249 49.4933 89.2823 49.472C89.2423 49.448 89.1956 49.436 89.1423 49.436C89.0516 49.436 88.9756 49.4587 88.9143 49.504C88.8529 49.5493 88.8049 49.6093 88.7703 49.684C88.7356 49.756 88.7103 49.836 88.6943 49.924C88.6809 50.0093 88.6743 50.092 88.6743 50.172C88.6743 50.2547 88.6889 50.3253 88.7183 50.384C88.7503 50.4427 88.7929 50.488 88.8463 50.52C88.9023 50.5493 88.9663 50.564 89.0383 50.564C89.1316 50.564 89.2063 50.5427 89.2623 50.5C89.3183 50.4547 89.3609 50.3987 89.3903 50.332L89.9503 50.552C89.8809 50.704 89.7623 50.8227 89.5943 50.908C89.4263 50.9933 89.2316 51.036 89.0103 51.036ZM91.1438 51.84L91.7998 49H92.4158L92.2958 49.68L92.2518 49.656C92.2972 49.4427 92.3905 49.2747 92.5318 49.152C92.6732 49.0267 92.8358 48.964 93.0198 48.964C93.1425 48.964 93.2505 48.9947 93.3438 49.056C93.4398 49.1147 93.5145 49.2027 93.5678 49.32C93.6238 49.4347 93.6518 49.5773 93.6518 49.748C93.6518 49.9107 93.6292 50.0693 93.5838 50.224C93.5412 50.3787 93.4785 50.5173 93.3958 50.64C93.3132 50.7627 93.2145 50.86 93.0998 50.932C92.9852 51.004 92.8585 51.04 92.7198 51.04C92.6158 51.04 92.5158 51.02 92.4198 50.98C92.3265 50.9373 92.2492 50.872 92.1878 50.784C92.1292 50.6933 92.0985 50.576 92.0958 50.432L92.1798 50.3L91.8238 51.84H91.1438ZM92.5278 50.54C92.6212 50.54 92.7012 50.5027 92.7678 50.428C92.8345 50.3533 92.8865 50.2613 92.9238 50.152C92.9612 50.0427 92.9798 49.936 92.9798 49.832C92.9798 49.7547 92.9678 49.6893 92.9438 49.636C92.9225 49.58 92.8892 49.5373 92.8438 49.508C92.7985 49.4787 92.7438 49.464 92.6798 49.464C92.5918 49.464 92.5132 49.5 92.4438 49.572C92.3772 49.644 92.3252 49.7347 92.2878 49.844C92.2505 49.9533 92.2318 50.0667 92.2318 50.184C92.2318 50.2907 92.2558 50.3773 92.3038 50.444C92.3545 50.508 92.4292 50.54 92.5278 50.54ZM93.7773 51L94.2413 49H94.8453L94.7173 49.728L94.6893 49.66C94.7507 49.4493 94.844 49.28 94.9693 49.152C95.0973 49.024 95.2547 48.96 95.4413 48.96C95.4867 48.96 95.524 48.964 95.5533 48.972C95.5827 48.9773 95.608 48.9853 95.6293 48.996L95.4613 49.568C95.4347 49.5547 95.404 49.5453 95.3693 49.54C95.3347 49.532 95.2893 49.528 95.2333 49.528C95.156 49.528 95.08 49.5467 95.0053 49.584C94.9307 49.6187 94.864 49.676 94.8053 49.756C94.7467 49.836 94.7013 49.9427 94.6693 50.076L94.4573 51H93.7773ZM96.4828 51.04C96.2855 51.04 96.1135 51 95.9668 50.92C95.8228 50.84 95.7121 50.732 95.6348 50.596C95.5575 50.46 95.5188 50.3067 95.5188 50.136C95.5188 49.92 95.5628 49.7227 95.6508 49.544C95.7388 49.3653 95.8668 49.224 96.0348 49.12C96.2028 49.0133 96.4055 48.96 96.6428 48.96C96.8428 48.96 97.0148 49 97.1588 49.08C97.3028 49.1573 97.4135 49.264 97.4908 49.4C97.5681 49.536 97.6068 49.6907 97.6068 49.864C97.6068 50.0773 97.5628 50.2733 97.4748 50.452C97.3868 50.6307 97.2588 50.7733 97.0908 50.88C96.9255 50.9867 96.7228 51.04 96.4828 51.04ZM96.4948 50.56C96.5828 50.56 96.6601 50.5213 96.7268 50.444C96.7961 50.3667 96.8495 50.2707 96.8868 50.156C96.9241 50.0387 96.9428 49.9227 96.9428 49.808C96.9428 49.696 96.9161 49.6067 96.8628 49.54C96.8095 49.4733 96.7321 49.44 96.6308 49.44C96.5428 49.44 96.4655 49.4787 96.3988 49.556C96.3321 49.6333 96.2788 49.7293 96.2388 49.844C96.2015 49.9587 96.1828 50.0747 96.1828 50.192C96.1828 50.2667 96.1948 50.332 96.2188 50.388C96.2428 50.4413 96.2775 50.484 96.3228 50.516C96.3708 50.5453 96.4281 50.56 96.4948 50.56ZM98.5422 51.036C98.4142 51.036 98.2982 51.0053 98.1942 50.944C98.0929 50.88 98.0129 50.7893 97.9542 50.672C97.8955 50.552 97.8662 50.4067 97.8662 50.236C97.8662 50.076 97.8889 49.92 97.9342 49.768C97.9795 49.616 98.0449 49.48 98.1302 49.36C98.2155 49.2373 98.3182 49.14 98.4382 49.068C98.5582 48.996 98.6915 48.96 98.8382 48.96C98.9689 48.96 99.0875 48.996 99.1942 49.068C99.3035 49.14 99.3729 49.2573 99.4022 49.42L99.6942 48.152H100.374L99.7142 51H99.0982L99.1662 50.624C99.1049 50.752 99.0182 50.8533 98.9062 50.928C98.7969 51 98.6755 51.036 98.5422 51.036ZM98.8422 50.54C98.9089 50.54 98.9689 50.5187 99.0222 50.476C99.0782 50.4333 99.1262 50.3773 99.1662 50.308C99.2062 50.236 99.2369 50.1573 99.2582 50.072C99.2795 49.9867 99.2902 49.9027 99.2902 49.82C99.2902 49.7453 99.2782 49.6813 99.2542 49.628C99.2302 49.5747 99.1955 49.5333 99.1502 49.504C99.1075 49.4747 99.0555 49.46 98.9942 49.46C98.8982 49.46 98.8155 49.4973 98.7462 49.572C98.6795 49.6467 98.6275 49.7387 98.5902 49.848C98.5555 49.9547 98.5382 50.0587 98.5382 50.16C98.5382 50.24 98.5489 50.308 98.5702 50.364C98.5942 50.42 98.6289 50.464 98.6742 50.496C98.7195 50.5253 98.7755 50.54 98.8422 50.54ZM100.891 51.036C100.755 51.036 100.637 51.0053 100.539 50.944C100.443 50.8827 100.375 50.796 100.335 50.684C100.295 50.5693 100.293 50.4333 100.331 50.276L100.631 49H101.311L101.039 50.176C101.012 50.2853 101.021 50.3693 101.067 50.428C101.112 50.4867 101.179 50.516 101.267 50.516C101.341 50.516 101.403 50.4973 101.451 50.46C101.501 50.4227 101.543 50.372 101.575 50.308C101.609 50.2413 101.636 50.1653 101.655 50.08L101.907 49H102.587L102.123 51H101.519L101.619 50.364L101.655 50.424C101.596 50.6213 101.499 50.7733 101.363 50.88C101.229 50.984 101.072 51.036 100.891 51.036ZM103.777 49L103.313 51H102.633L103.097 49H103.777ZM103.529 48.768C103.412 48.768 103.32 48.744 103.253 48.696C103.189 48.648 103.164 48.5707 103.177 48.464C103.19 48.3387 103.232 48.2493 103.301 48.196C103.373 48.1427 103.47 48.116 103.593 48.116C103.716 48.116 103.809 48.1413 103.873 48.192C103.937 48.24 103.962 48.3147 103.949 48.416C103.938 48.5467 103.897 48.6387 103.825 48.692C103.753 48.7427 103.654 48.768 103.529 48.768ZM104.773 51.036C104.531 51.036 104.347 50.972 104.221 50.844C104.096 50.7133 104.063 50.5213 104.121 50.268L104.509 48.568L105.237 48.376L104.805 50.252C104.779 50.356 104.789 50.4347 104.837 50.488C104.885 50.5387 104.959 50.564 105.057 50.564C105.116 50.564 105.163 50.5587 105.197 50.548C105.235 50.5373 105.268 50.524 105.297 50.508L105.249 50.944C105.18 50.9787 105.104 51.0027 105.021 51.016C104.941 51.0293 104.859 51.036 104.773 51.036ZM103.941 49.484L104.057 49H105.613L105.497 49.484H103.941ZM106.48 51.044C106.342 51.044 106.206 51.024 106.072 50.984C105.942 50.944 105.823 50.8867 105.716 50.812C105.61 50.7347 105.523 50.644 105.456 50.54L105.808 50.216C105.878 50.3227 105.966 50.4107 106.072 50.48C106.182 50.5493 106.296 50.584 106.416 50.584C106.496 50.584 106.558 50.572 106.6 50.548C106.643 50.5213 106.664 50.484 106.664 50.436C106.664 50.404 106.652 50.3747 106.628 50.348C106.604 50.3187 106.563 50.2947 106.504 50.276L106.276 50.204C106.084 50.1427 105.944 50.0653 105.856 49.972C105.771 49.8787 105.728 49.7613 105.728 49.62C105.728 49.484 105.764 49.3667 105.836 49.268C105.908 49.1693 106.008 49.0933 106.136 49.04C106.264 48.9867 106.412 48.96 106.58 48.96C106.716 48.96 106.842 48.976 106.956 49.008C107.074 49.04 107.178 49.0867 107.268 49.148C107.362 49.2093 107.439 49.284 107.5 49.372L107.164 49.708C107.108 49.6227 107.03 49.5533 106.928 49.5C106.827 49.444 106.72 49.416 106.608 49.416C106.531 49.416 106.472 49.4293 106.432 49.456C106.392 49.48 106.372 49.5147 106.372 49.56C106.372 49.6053 106.391 49.6387 106.428 49.66C106.468 49.6813 106.507 49.6987 106.544 49.712L106.912 49.828C107.054 49.8707 107.16 49.9373 107.232 50.028C107.304 50.116 107.34 50.2227 107.34 50.348C107.34 50.564 107.263 50.7347 107.108 50.86C106.954 50.9827 106.744 51.044 106.48 51.044ZM109.488 51.036C109.36 51.036 109.244 51.0053 109.14 50.944C109.038 50.88 108.958 50.7893 108.9 50.672C108.841 50.552 108.812 50.4067 108.812 50.236C108.812 50.076 108.834 49.92 108.88 49.768C108.925 49.616 108.99 49.48 109.076 49.36C109.161 49.2373 109.264 49.14 109.384 49.068C109.504 48.996 109.637 48.96 109.784 48.96C109.914 48.96 110.033 48.996 110.14 49.068C110.249 49.14 110.318 49.2573 110.348 49.42L110.64 48.152H111.32L110.66 51H110.044L110.112 50.624C110.05 50.752 109.964 50.8533 109.852 50.928C109.742 51 109.621 51.036 109.488 51.036ZM109.788 50.54C109.854 50.54 109.914 50.5187 109.968 50.476C110.024 50.4333 110.072 50.3773 110.112 50.308C110.152 50.236 110.182 50.1573 110.204 50.072C110.225 49.9867 110.236 49.9027 110.236 49.82C110.236 49.7453 110.224 49.6813 110.2 49.628C110.176 49.5747 110.141 49.5333 110.096 49.504C110.053 49.4747 110.001 49.46 109.94 49.46C109.844 49.46 109.761 49.4973 109.692 49.572C109.625 49.6467 109.573 49.7387 109.536 49.848C109.501 49.9547 109.484 50.0587 109.484 50.16C109.484 50.24 109.494 50.308 109.516 50.364C109.54 50.42 109.574 50.464 109.62 50.496C109.665 50.5253 109.721 50.54 109.788 50.54ZM112.316 49L111.852 51H111.172L111.636 49H112.316ZM112.068 48.768C111.951 48.768 111.859 48.744 111.792 48.696C111.728 48.648 111.703 48.5707 111.716 48.464C111.729 48.3387 111.771 48.2493 111.84 48.196C111.912 48.1427 112.009 48.116 112.132 48.116C112.255 48.116 112.348 48.1413 112.412 48.192C112.476 48.24 112.501 48.3147 112.488 48.416C112.477 48.5467 112.436 48.6387 112.364 48.692C112.292 48.7427 112.193 48.768 112.068 48.768ZM113.964 49H114.728L113.58 51H112.764L112.536 49H113.208L113.268 50.848L113.136 50.824L113.964 49ZM115.612 51.036C115.42 51.036 115.25 50.9987 115.104 50.924C114.96 50.8493 114.846 50.7453 114.764 50.612C114.684 50.476 114.644 50.3173 114.644 50.136C114.644 49.9093 114.689 49.708 114.78 49.532C114.87 49.356 115 49.2173 115.168 49.116C115.336 49.0147 115.534 48.964 115.764 48.964C115.953 48.964 116.114 49 116.248 49.072C116.381 49.144 116.482 49.2467 116.552 49.38C116.624 49.5107 116.66 49.6667 116.66 49.848C116.66 49.912 116.656 49.972 116.648 50.028C116.642 50.084 116.633 50.1347 116.62 50.18H115.084L115.088 49.812H116.176L115.992 49.916C116 49.884 116.005 49.8547 116.008 49.828C116.013 49.7987 116.016 49.7693 116.016 49.74C116.016 49.6733 116.004 49.6173 115.98 49.572C115.958 49.5267 115.926 49.4933 115.884 49.472C115.844 49.448 115.797 49.436 115.744 49.436C115.653 49.436 115.577 49.4587 115.516 49.504C115.454 49.5493 115.406 49.6093 115.372 49.684C115.337 49.756 115.312 49.836 115.296 49.924C115.282 50.0093 115.276 50.092 115.276 50.172C115.276 50.2547 115.29 50.3253 115.32 50.384C115.352 50.4427 115.394 50.488 115.448 50.52C115.504 50.5493 115.568 50.564 115.64 50.564C115.733 50.564 115.808 50.5427 115.864 50.5C115.92 50.4547 115.962 50.3987 115.992 50.332L116.552 50.552C116.482 50.704 116.364 50.8227 116.196 50.908C116.028 50.9933 115.833 51.036 115.612 51.036ZM116.797 51L117.261 49H117.865L117.737 49.728L117.709 49.66C117.77 49.4493 117.864 49.28 117.989 49.152C118.117 49.024 118.274 48.96 118.461 48.96C118.506 48.96 118.544 48.964 118.573 48.972C118.602 48.9773 118.628 48.9853 118.649 48.996L118.481 49.568C118.454 49.5547 118.424 49.5453 118.389 49.54C118.354 49.532 118.309 49.528 118.253 49.528C118.176 49.528 118.1 49.5467 118.025 49.584C117.95 49.6187 117.884 49.676 117.825 49.756C117.766 49.836 117.721 49.9427 117.689 50.076L117.477 51H116.797ZM119.371 51.044C119.232 51.044 119.096 51.024 118.963 50.984C118.832 50.944 118.714 50.8867 118.607 50.812C118.5 50.7347 118.414 50.644 118.347 50.54L118.699 50.216C118.768 50.3227 118.856 50.4107 118.963 50.48C119.072 50.5493 119.187 50.584 119.307 50.584C119.387 50.584 119.448 50.572 119.491 50.548C119.534 50.5213 119.555 50.484 119.555 50.436C119.555 50.404 119.543 50.3747 119.519 50.348C119.495 50.3187 119.454 50.2947 119.395 50.276L119.167 50.204C118.975 50.1427 118.835 50.0653 118.747 49.972C118.662 49.8787 118.619 49.7613 118.619 49.62C118.619 49.484 118.655 49.3667 118.727 49.268C118.799 49.1693 118.899 49.0933 119.027 49.04C119.155 48.9867 119.303 48.96 119.471 48.96C119.607 48.96 119.732 48.976 119.847 49.008C119.964 49.04 120.068 49.0867 120.159 49.148C120.252 49.2093 120.33 49.284 120.391 49.372L120.055 49.708C119.999 49.6227 119.92 49.5533 119.819 49.5C119.718 49.444 119.611 49.416 119.499 49.416C119.422 49.416 119.363 49.4293 119.323 49.456C119.283 49.48 119.263 49.5147 119.263 49.56C119.263 49.6053 119.282 49.6387 119.319 49.66C119.359 49.6813 119.398 49.6987 119.435 49.712L119.803 49.828C119.944 49.8707 120.051 49.9373 120.123 50.028C120.195 50.116 120.231 50.2227 120.231 50.348C120.231 50.564 120.154 50.7347 119.999 50.86C119.844 50.9827 119.635 51.044 119.371 51.044ZM122.682 51.036C122.49 51.036 122.321 50.9987 122.174 50.924C122.03 50.8493 121.917 50.7453 121.834 50.612C121.754 50.476 121.714 50.3173 121.714 50.136C121.714 49.9093 121.759 49.708 121.85 49.532C121.941 49.356 122.07 49.2173 122.238 49.116C122.406 49.0147 122.605 48.964 122.834 48.964C123.023 48.964 123.185 49 123.318 49.072C123.451 49.144 123.553 49.2467 123.622 49.38C123.694 49.5107 123.73 49.6667 123.73 49.848C123.73 49.912 123.726 49.972 123.718 50.028C123.713 50.084 123.703 50.1347 123.69 50.18H122.154L122.158 49.812H123.246L123.062 49.916C123.07 49.884 123.075 49.8547 123.078 49.828C123.083 49.7987 123.086 49.7693 123.086 49.74C123.086 49.6733 123.074 49.6173 123.05 49.572C123.029 49.5267 122.997 49.4933 122.954 49.472C122.914 49.448 122.867 49.436 122.814 49.436C122.723 49.436 122.647 49.4587 122.586 49.504C122.525 49.5493 122.477 49.6093 122.442 49.684C122.407 49.756 122.382 49.836 122.366 49.924C122.353 50.0093 122.346 50.092 122.346 50.172C122.346 50.2547 122.361 50.3253 122.39 50.384C122.422 50.4427 122.465 50.488 122.518 50.52C122.574 50.5493 122.638 50.564 122.71 50.564C122.803 50.564 122.878 50.5427 122.934 50.5C122.99 50.4547 123.033 50.3987 123.062 50.332L123.622 50.552C123.553 50.704 123.434 50.8227 123.266 50.908C123.098 50.9933 122.903 51.036 122.682 51.036ZM123.867 51L124.331 49H124.935L124.831 49.636L124.799 49.58C124.855 49.38 124.951 49.2267 125.087 49.12C125.226 49.0133 125.389 48.96 125.575 48.96C125.714 48.96 125.83 48.992 125.923 49.056C126.019 49.1173 126.085 49.2053 126.119 49.32C126.157 49.4347 126.157 49.5733 126.119 49.736L125.827 51H125.147L125.419 49.82C125.443 49.7133 125.435 49.6307 125.395 49.572C125.355 49.5107 125.29 49.48 125.199 49.48C125.13 49.48 125.069 49.4987 125.015 49.536C124.965 49.5707 124.921 49.6213 124.883 49.688C124.849 49.752 124.821 49.8293 124.799 49.92L124.547 51H123.867ZM128.242 51.86C128.085 51.86 127.937 51.8333 127.798 51.78C127.662 51.7267 127.551 51.6453 127.466 51.536C127.383 51.4293 127.341 51.2933 127.338 51.128L128.022 51.056C128.025 51.168 128.047 51.256 128.09 51.32C128.133 51.3867 128.211 51.42 128.326 51.42C128.39 51.42 128.447 51.4053 128.498 51.376C128.551 51.3467 128.598 51.2973 128.638 51.228C128.678 51.1613 128.711 51.072 128.738 50.96L128.886 50.32H128.918C128.875 50.5227 128.794 50.6787 128.674 50.788C128.557 50.8947 128.411 50.948 128.238 50.948C128.11 50.948 127.994 50.9173 127.89 50.856C127.786 50.792 127.703 50.7013 127.642 50.584C127.583 50.4667 127.554 50.3267 127.554 50.164C127.554 50.004 127.577 49.852 127.622 49.708C127.667 49.564 127.731 49.436 127.814 49.324C127.899 49.212 128.001 49.124 128.118 49.06C128.238 48.9933 128.371 48.96 128.518 48.96C128.617 48.96 128.71 48.9827 128.798 49.028C128.889 49.0733 128.961 49.144 129.014 49.24C129.07 49.3333 129.097 49.4533 129.094 49.6L129.014 49.7L129.174 49H129.854L129.414 50.904C129.339 51.224 129.211 51.4627 129.03 51.62C128.851 51.78 128.589 51.86 128.242 51.86ZM128.542 50.456C128.627 50.456 128.702 50.4253 128.766 50.364C128.83 50.3 128.879 50.2187 128.914 50.12C128.949 50.0213 128.966 49.9187 128.966 49.812C128.966 49.74 128.954 49.6787 128.93 49.628C128.906 49.5747 128.871 49.5333 128.826 49.504C128.781 49.4747 128.727 49.46 128.666 49.46C128.575 49.46 128.497 49.492 128.43 49.556C128.363 49.6173 128.313 49.696 128.278 49.792C128.243 49.888 128.226 49.9853 128.226 50.084C128.226 50.1907 128.251 50.28 128.302 50.352C128.355 50.4213 128.435 50.456 128.542 50.456ZM129.855 51L130.319 49H130.923L130.795 49.728L130.767 49.66C130.829 49.4493 130.922 49.28 131.047 49.152C131.175 49.024 131.333 48.96 131.519 48.96C131.565 48.96 131.602 48.964 131.631 48.972C131.661 48.9773 131.686 48.9853 131.707 48.996L131.539 49.568C131.513 49.5547 131.482 49.5453 131.447 49.54C131.413 49.532 131.367 49.528 131.311 49.528C131.234 49.528 131.158 49.5467 131.083 49.584C131.009 49.6187 130.942 49.676 130.883 49.756C130.825 49.836 130.779 49.9427 130.747 50.076L130.535 51H129.855ZM132.561 51.04C132.364 51.04 132.192 51 132.045 50.92C131.901 50.84 131.79 50.732 131.713 50.596C131.636 50.46 131.597 50.3067 131.597 50.136C131.597 49.92 131.641 49.7227 131.729 49.544C131.817 49.3653 131.945 49.224 132.113 49.12C132.281 49.0133 132.484 48.96 132.721 48.96C132.921 48.96 133.093 49 133.237 49.08C133.381 49.1573 133.492 49.264 133.569 49.4C133.646 49.536 133.685 49.6907 133.685 49.864C133.685 50.0773 133.641 50.2733 133.553 50.452C133.465 50.6307 133.337 50.7733 133.169 50.88C133.004 50.9867 132.801 51.04 132.561 51.04ZM132.573 50.56C132.661 50.56 132.738 50.5213 132.805 50.444C132.874 50.3667 132.928 50.2707 132.965 50.156C133.002 50.0387 133.021 49.9227 133.021 49.808C133.021 49.696 132.994 49.6067 132.941 49.54C132.888 49.4733 132.81 49.44 132.709 49.44C132.621 49.44 132.544 49.4787 132.477 49.556C132.41 49.6333 132.357 49.7293 132.317 49.844C132.28 49.9587 132.261 50.0747 132.261 50.192C132.261 50.2667 132.273 50.332 132.297 50.388C132.321 50.4413 132.356 50.484 132.401 50.516C132.449 50.5453 132.506 50.56 132.573 50.56ZM134.812 51.044C134.674 51.044 134.538 51.024 134.404 50.984C134.274 50.944 134.155 50.8867 134.048 50.812C133.942 50.7347 133.855 50.644 133.788 50.54L134.14 50.216C134.21 50.3227 134.298 50.4107 134.404 50.48C134.514 50.5493 134.628 50.584 134.748 50.584C134.828 50.584 134.89 50.572 134.932 50.548C134.975 50.5213 134.996 50.484 134.996 50.436C134.996 50.404 134.984 50.3747 134.96 50.348C134.936 50.3187 134.895 50.2947 134.836 50.276L134.608 50.204C134.416 50.1427 134.276 50.0653 134.188 49.972C134.103 49.8787 134.06 49.7613 134.06 49.62C134.06 49.484 134.096 49.3667 134.168 49.268C134.24 49.1693 134.34 49.0933 134.468 49.04C134.596 48.9867 134.744 48.96 134.912 48.96C135.048 48.96 135.174 48.976 135.288 49.008C135.406 49.04 135.51 49.0867 135.6 49.148C135.694 49.2093 135.771 49.284 135.832 49.372L135.496 49.708C135.44 49.6227 135.362 49.5533 135.26 49.5C135.159 49.444 135.052 49.416 134.94 49.416C134.863 49.416 134.804 49.4293 134.764 49.456C134.724 49.48 134.704 49.5147 134.704 49.56C134.704 49.6053 134.723 49.6387 134.76 49.66C134.8 49.6813 134.839 49.6987 134.876 49.712L135.244 49.828C135.386 49.8707 135.492 49.9373 135.564 50.028C135.636 50.116 135.672 50.2227 135.672 50.348C135.672 50.564 135.595 50.7347 135.44 50.86C135.286 50.9827 135.076 51.044 134.812 51.044Z" fill="white"/>
</svg>
